<?xml version="1.0" encoding="UTF-8"?>
<svg version="1.1" xmlns="http://www.w3.org/2000/svg" width="3264" height="3264">
<path d="M0 0 C54.78 0 109.56 0 166 0 C166.33 152.46 166.66 304.92 167 462 C171.62 456.39 176.24 450.78 181 445 C183.31 442.195 185.62 439.39 188 436.5 C189.72283203 434.40785156 189.72283203 434.40785156 191.48046875 432.2734375 C193.87842659 429.36158369 196.27693228 426.45018221 198.67578125 423.5390625 C206.09997308 414.52945437 206.09997308 414.52945437 213.5 405.5 C220.25865671 397.22970288 227.06012038 388.99451918 233.85253906 380.75195312 C242.18998395 370.63724034 242.18998395 370.63724034 250.5 360.5 C256.03702976 353.72455878 261.60489025 346.97452324 267.16943359 340.22167969 C270.11367588 336.6483795 273.0567964 333.07415572 276 329.5 C277.16666096 328.08332863 278.33332763 326.66666197 279.5 325.25 C280.0775 324.54875 280.655 323.8475 281.25 323.125 C286.5 316.75 286.5 316.75 288.2512207 314.62353516 C289.4138412 313.21177011 290.57643898 311.79998636 291.73901367 310.38818359 C294.71739759 306.77136578 297.69621718 303.15490818 300.67578125 299.5390625 C301.88802995 298.06771584 303.10026966 296.59636178 304.3125 295.125 C304.89418945 294.41915771 305.47587891 293.71331543 306.07519531 292.98608398 C310.17712404 288.00625817 314.26058138 283.01187819 318.328125 278.00390625 C320 276 320 276 322 274 C324.47120331 273.80699252 326.82983132 273.73943104 329.30178833 273.75949097 C330.44366271 273.75692769 330.44366271 273.75692769 331.60860527 273.75431263 C334.17292086 273.7510045 336.73697783 273.76204303 339.30126953 273.77294922 C341.13405349 273.77351305 342.96683789 273.77319733 344.79962158 273.77206421 C349.78698667 273.77148859 354.77425624 273.78327667 359.76159906 273.79721212 C364.9693062 273.8096847 370.17701534 273.81088723 375.38473511 273.81326294 C385.25157819 273.81948795 395.11837714 273.83591254 404.98520076 273.85596192 C416.21598255 273.87828921 427.44676641 273.88930636 438.67756486 273.89935279 C461.78506774 273.9202779 484.8925314 273.95547366 508 274 C507.14244212 278.30104469 504.84432734 280.84882895 502 284.0625 C500.98879161 285.22978336 499.97838584 286.39776246 498.96875 287.56640625 C498.46472656 288.14664551 497.96070313 288.72688477 497.44140625 289.32470703 C495.41516386 291.67973333 493.45619665 294.0866487 491.5 296.5 C487.75212202 301.1045358 483.93016556 305.64019191 480.0859375 310.1640625 C477.18755177 313.5805954 474.328449 317.02504838 471.5 320.5 C467.75212202 325.1045358 463.93016556 329.64019191 460.0859375 334.1640625 C457.18755177 337.5805954 454.328449 341.02504838 451.5 344.5 C447.75212202 349.1045358 443.93016556 353.64019191 440.0859375 358.1640625 C437.18755177 361.5805954 434.328449 365.02504838 431.5 368.5 C427.75212202 373.1045358 423.93016556 377.64019191 420.0859375 382.1640625 C417.18755177 385.5805954 414.328449 389.02504838 411.5 392.5 C407.75212202 397.1045358 403.93016556 401.64019191 400.0859375 406.1640625 C397.18755177 409.5805954 394.328449 413.02504838 391.5 416.5 C387.75212202 421.1045358 383.93016556 425.64019191 380.0859375 430.1640625 C377.18755177 433.5805954 374.328449 437.02504838 371.5 440.5 C367.75212202 445.1045358 363.93016556 449.64019191 360.0859375 454.1640625 C357.18755177 457.5805954 354.328449 461.02504838 351.5 464.5 C347.75212202 469.1045358 343.93016556 473.64019191 340.0859375 478.1640625 C337.18755177 481.5805954 334.328449 485.02504838 331.5 488.5 C328.21175365 492.53984552 324.87233359 496.53052486 321.5 500.5 C317.96151186 504.67295003 314.43073925 508.85154867 310.9375 513.0625 C310.22464844 513.91972656 309.51179688 514.77695313 308.77734375 515.66015625 C307.20959932 517.72406594 306.05137162 519.64122325 305 522 C305.61746094 522.66644531 306.23492187 523.33289062 306.87109375 524.01953125 C311.21698604 528.74907917 315.4653925 533.49824151 319.5 538.5 C322.55348679 542.28460334 325.70668301 545.92207537 329 549.5 C333.11378909 553.9698512 336.97087297 558.59044893 340.78515625 563.31640625 C342.95632827 565.94708557 345.20241357 568.47942424 347.5 571 C350.59555196 574.39598682 353.55151207 577.86171531 356.4375 581.4375 C359.51336588 585.24087503 362.68753166 588.90082652 366 592.5 C370.11378909 596.9698512 373.97087297 601.59044893 377.78515625 606.31640625 C379.95632827 608.94708557 382.20241357 611.47942424 384.5 614 C387.59555196 617.39598682 390.55151207 620.86171531 393.4375 624.4375 C396.51336588 628.24087503 399.68753166 631.90082652 403 635.5 C407.11378909 639.9698512 410.97087297 644.59044893 414.78515625 649.31640625 C416.95632827 651.94708557 419.20241357 654.47942424 421.5 657 C425.41891252 661.29991791 429.09170869 665.75919547 432.75 670.28125 C435.64475711 673.77908151 438.69589539 677.11785404 441.75390625 680.47265625 C444.06187598 683.06962393 446.25555863 685.73404013 448.4375 688.4375 C451.51336588 692.24087503 454.68753166 695.90082652 458 699.5 C462.11378909 703.9698512 465.97087297 708.59044893 469.78515625 713.31640625 C471.95632827 715.94708557 474.20241357 718.47942424 476.5 721 C479.59555196 724.39598682 482.55151207 727.86171531 485.4375 731.4375 C488.51336588 735.24087503 491.68753166 738.90082652 495 742.5 C499.11057783 746.96636201 502.96434593 751.58383305 506.77734375 756.3046875 C509.70731233 759.85772497 512.7833468 763.2628464 515.8828125 766.66796875 C518.3591267 769.39556945 520.77778186 772.16961555 523.1953125 774.94921875 C525.22958141 777.26088797 527.3022231 779.5353143 529.375 781.8125 C532.48528851 785.25378205 535.46478312 788.76321298 538.375 792.375 C541.61955098 796.38829477 544.98772923 800.22388238 548.5 804 C562.2831919 818.84957569 562.2831919 818.84957569 564 824 C535.931707 824.3507823 507.86374361 824.61509929 479.79369831 824.77718258 C466.75942418 824.85445007 453.72651383 824.95974207 440.69311523 825.1315918 C429.32983461 825.28134872 417.96754177 825.37793048 406.6033017 825.41132742 C400.5882921 825.4308439 394.57610764 825.47652495 388.562006 825.58595085 C382.89346336 825.68824771 377.22889114 825.71908447 371.55951309 825.69661522 C369.48616713 825.70072136 367.41268006 825.73029234 365.34013557 825.78808212 C348.91785806 826.22329334 348.91785806 826.22329334 342.95406151 820.74389839 C340.06917733 817.64957808 337.59656607 814.34595809 335.24728525 810.83266842 C333.45328142 808.19669227 331.43155071 805.81044178 329.375 803.375 C328.66859375 802.50359375 327.9621875 801.6321875 327.234375 800.734375 C324.7301747 797.66979421 322.18452702 794.6433778 319.625 791.625 C319.16480469 791.08230469 318.70460938 790.53960938 318.23046875 789.98046875 C316.82099868 788.31972826 315.41066758 786.65972338 314 785 C308.0399173 777.98765442 302.12241205 770.95039195 296.3125 763.8125 C293.2756723 760.1190609 290.18039045 756.47701514 287.08374023 752.83374023 C284.2045468 749.44045891 281.36795763 746.01732214 278.5625 742.5625 C275.10725849 738.31607618 271.57302166 734.14703706 268 730 C263.68071044 724.98680512 259.44902881 719.9146268 255.27734375 714.77734375 C252.71796028 711.65603733 250.11410084 708.57546576 247.5 705.5 C244.14552873 701.55349519 240.82778171 697.58357928 237.5625 693.5625 C234.10725849 689.31607618 230.57302166 685.14703706 227 681 C222.68071044 675.98680512 218.44902881 670.9146268 214.27734375 665.77734375 C211.71796028 662.65603733 209.11410084 659.57546576 206.5 656.5 C203.14552873 652.55349519 199.82778171 648.58357928 196.5625 644.5625 C193.10725714 640.31607452 189.57298808 636.14706799 186 632 C179.50501494 624.46042457 173.21691493 616.77114367 167 609 C166.67 679.95 166.34 750.9 166 824 C111.22 824 56.44 824 0 824 C0 552.08 0 280.16 0 0 Z " fill="#F9F9F9" transform="translate(198,1204)"/>
<path d="M0 0 C54.78 0 109.56 0 166 0 C166.33 152.46 166.66 304.92 167 462 C175.392756 452.14260738 175.392756 452.14260738 183.4375 442.0625 C187.6371492 436.64379443 192.02524564 431.42601068 196.51928711 426.25024414 C199.96930279 422.25651535 203.26843808 418.17191732 206.5 414 C210.73039886 408.54114957 215.13544941 403.2680786 219.65356445 398.0456543 C224.20669377 392.78051909 228.61573508 387.40646148 233 382 C234.499145 380.16596746 235.99915322 378.33264019 237.5 376.5 C239.69225146 373.8210008 241.88419468 371.14175792 244.07421875 368.4609375 C251.64029221 359.20263689 259.24866939 349.97921089 266.85253906 340.75195312 C275.18998395 330.63724034 275.18998395 330.63724034 283.5 320.5 C288.41445859 314.48637414 293.35373364 308.49327532 298.29296875 302.5 C300.79794833 299.46027935 303.30034089 296.41845555 305.80078125 293.375 C306.42057861 292.62105957 307.04037598 291.86711914 307.67895508 291.09033203 C308.85514038 289.65948267 310.03079676 288.22819828 311.20581055 286.79638672 C311.74633057 286.13912598 312.28685059 285.48186523 312.84375 284.8046875 C313.30974609 284.23733887 313.77574219 283.66999023 314.25585938 283.08544922 C314.83142578 282.39725098 315.40699219 281.70905273 316 281 C316.28334261 280.43670014 316.56668522 279.87340029 316.85861397 279.29303074 C318.34644959 276.84909081 319.58459637 275.57338674 322 274 C327.90384781 272.93013583 333.77339256 273.11551146 339.75537109 273.20532227 C341.58874434 273.20729752 343.42212313 273.20618702 345.25549316 273.20222473 C350.22653985 273.20021711 355.19640307 273.24135723 360.16717482 273.29024243 C365.36412517 273.33401595 370.56110297 273.33811468 375.75820923 273.34642029 C385.59682667 273.36817294 395.43489933 273.42561067 405.27327693 273.49586672 C416.47506058 273.57412162 427.67687031 273.6125996 438.87885928 273.64773476 C461.9195415 273.72089338 484.95974022 273.84400991 508 274 C507.14244212 278.30104469 504.84432734 280.84882895 502 284.0625 C500.98879161 285.22978336 499.97838584 286.39776246 498.96875 287.56640625 C498.46472656 288.14664551 497.96070312 288.72688477 497.44140625 289.32470703 C495.41516386 291.67973333 493.45619665 294.0866487 491.5 296.5 C487.75212202 301.1045358 483.93016556 305.64019191 480.0859375 310.1640625 C477.18755177 313.5805954 474.328449 317.02504838 471.5 320.5 C467.75212202 325.1045358 463.93016556 329.64019191 460.0859375 334.1640625 C457.18755177 337.5805954 454.328449 341.02504838 451.5 344.5 C447.75212202 349.1045358 443.93016556 353.64019191 440.0859375 358.1640625 C437.18755177 361.5805954 434.328449 365.02504838 431.5 368.5 C427.75212202 373.1045358 423.93016556 377.64019191 420.0859375 382.1640625 C417.18755177 385.5805954 414.328449 389.02504838 411.5 392.5 C407.75212202 397.1045358 403.93016556 401.64019191 400.0859375 406.1640625 C396.43719215 410.46509753 392.86355273 414.82346097 389.3046875 419.19921875 C386.77966925 422.26775787 384.20515231 425.29039812 381.625 428.3125 C377.84207508 432.74851603 374.19467263 437.26600643 370.625 441.875 C366.16948329 447.62027155 361.48856595 453.13095441 356.70019531 458.60058594 C352.78368043 463.07760385 348.98672933 467.63542937 345.2421875 472.2578125 C342.69746317 475.37000148 340.10381775 478.43726497 337.5 481.5 C333.38122741 486.34670202 329.33398936 491.24531057 325.3203125 496.1796875 C322.70571211 499.35770346 320.04358576 502.49235185 317.375 505.625 C313.10456198 510.64167055 308.97767153 515.74621542 305 521 C308.90081098 526.48222084 313.17405551 531.44506117 317.75463867 536.35986328 C321.63395899 540.54404822 325.24162361 544.90685637 328.8203125 549.3515625 C330.97757399 551.97275119 333.21311 554.49154281 335.5 557 C338.59555196 560.39598682 341.55151207 563.86171531 344.4375 567.4375 C347.51336588 571.24087503 350.68753166 574.90082652 354 578.5 C358.11378909 582.9698512 361.97087297 587.59044893 365.78515625 592.31640625 C367.95632827 594.94708557 370.20241357 597.47942424 372.5 600 C375.59555196 603.39598682 378.55151207 606.86171531 381.4375 610.4375 C384.51336588 614.24087503 387.68753166 617.90082652 391 621.5 C395.11378909 625.9698512 398.97087297 630.59044893 402.78515625 635.31640625 C404.95632827 637.94708557 407.20241357 640.47942424 409.5 643 C412.59555196 646.39598682 415.55151207 649.86171531 418.4375 653.4375 C421.51336588 657.24087503 424.68753166 660.90082652 428 664.5 C432.11378909 668.9698512 435.97087297 673.59044893 439.78515625 678.31640625 C441.95632827 680.94708557 444.20241357 683.47942424 446.5 686 C450.41891252 690.29991791 454.09170869 694.75919547 457.75 699.28125 C460.64475711 702.77908151 463.69589539 706.11785404 466.75390625 709.47265625 C469.06187598 712.06962393 471.25555863 714.73404013 473.4375 717.4375 C476.51336588 721.24087503 479.68753166 724.90082652 483 728.5 C487.11378909 732.9698512 490.97087297 737.59044893 494.78515625 742.31640625 C496.95632827 744.94708557 499.20241357 747.47942424 501.5 750 C504.59555196 753.39598682 507.55151207 756.86171531 510.4375 760.4375 C513.51336588 764.24087503 516.68753166 767.90082652 520 771.5 C524.11378909 775.9698512 527.97087297 780.59044893 531.78515625 785.31640625 C533.95632827 787.94708557 536.20241357 790.47942424 538.5 793 C542.38964644 797.26715112 546.03143415 801.6916969 549.65234375 806.1875 C552.95276061 810.14141038 556.47623985 813.86476367 560.03125 817.58984375 C561.95995089 819.95097162 562.41218076 821.11610702 563 824 C535.04476042 824.32733018 507.08980884 824.57406061 479.13303757 824.72537041 C466.15151585 824.79750046 453.17118616 824.89580066 440.19042969 825.05615234 C428.87367165 825.19588173 417.55777697 825.28605844 406.24018025 825.31723893 C400.24939264 825.33546122 394.26107441 825.37814534 388.27108002 825.48022079 C382.62647358 825.57562645 376.98534014 825.60449182 371.34000397 825.58350754 C369.27432842 825.58734295 367.20853061 825.61498231 365.14355469 825.66887665 C348.77036462 826.0750568 348.77036462 826.0750568 343.18772125 820.97195816 C340.52276466 818.09712395 338.27864025 815.0227379 336.15157938 811.73548341 C334.43396855 809.14696441 332.4396638 806.80867407 330.4375 804.4375 C329.72207031 803.55707031 329.00664062 802.67664062 328.26953125 801.76953125 C323.91494206 796.45558334 319.44921565 791.23473234 315 786 C309.0399173 778.98765442 303.12241205 771.95039195 297.3125 764.8125 C294.2756723 761.1190609 291.18039045 757.47701514 288.08374023 753.83374023 C285.2045468 750.44045891 282.36795763 747.01732214 279.5625 743.5625 C276.10725849 739.31607618 272.57302166 735.14703706 269 731 C264.68071044 725.98680512 260.44902881 720.9146268 256.27734375 715.77734375 C253.71796028 712.65603733 251.11410084 709.57546576 248.5 706.5 C245.14552873 702.55349519 241.82778171 698.58357928 238.5625 694.5625 C235.10725849 690.31607618 231.57302166 686.14703706 228 682 C223.68071044 676.98680512 219.44902881 671.9146268 215.27734375 666.77734375 C212.71796028 663.65603733 210.11410084 660.57546576 207.5 657.5 C204.14552873 653.55349519 200.82778171 649.58357928 197.5625 645.5625 C193.60982994 640.70474628 189.54451931 635.95317233 185.45703125 631.20922852 C181.57674852 626.69653432 177.78397574 622.12282172 174.03515625 617.5 C171.71320769 614.64770234 169.35454279 611.82545135 167 609 C166.67 679.95 166.34 750.9 166 824 C111.22 824 56.44 824 0 824 C0 552.08 0 280.16 0 0 Z " fill="#F9F9F9" transform="translate(1815,1201)"/>
<path d="M0 0 C9.79271894 5.01367451 18.63197991 10.41745684 26.75292969 17.89257812 C27.44257812 18.49070312 28.13222656 19.08882812 28.84277344 19.70507812 C41.08036491 30.94912256 50.11563302 47.47899926 51.99121094 63.99023438 C52.50047222 77.47225671 45.09441307 89.9049538 39.18261719 101.55664062 C38.33707605 103.24090905 37.49237672 104.9256003 36.64846802 106.61068726 C34.43537688 111.02354838 32.21003886 115.43012194 29.98223877 119.83557129 C28.18942574 123.38596968 26.40541694 126.94075326 24.62190056 130.49582863 C22.45767105 134.80929139 20.28944475 139.12073992 18.12011719 143.43164062 C17.72097988 144.22500446 17.32184258 145.0183683 16.9106102 145.83577347 C12.07826731 155.43086861 7.16489181 164.9782641 2.13668633 174.47236061 C-1.26381329 180.89499463 -4.53075326 187.37552625 -7.74707031 193.89257812 C-11.37808688 201.24991354 -15.09952606 208.54625857 -18.93457031 215.79882812 C-24.64928142 226.60725174 -30.20064533 237.49709014 -35.74707031 248.39257812 C-41.62789951 259.94497523 -47.53187753 271.48108767 -53.58692932 282.94328308 C-58.18921242 291.66158472 -62.69937971 300.42604683 -67.18457031 309.20507812 C-67.66286285 310.14114899 -68.1411554 311.07721985 -68.63394165 312.04165649 C-79.86459084 334.04486882 -90.93646061 356.12831857 -101.99946976 378.21615219 C-103.41745544 381.04592322 -104.83691534 383.87494999 -106.25680542 386.70376587 C-116.44646938 407.00932031 -126.49885729 427.34135105 -135.92764282 448.01309204 C-137.93988961 452.4045699 -139.99671476 456.77469625 -142.05957031 461.14257812 C-142.39189163 461.84711624 -142.72421295 462.55165436 -143.06660461 463.27754211 C-143.79271825 464.81622189 -144.51976155 466.35446291 -145.24707031 467.89257812 C-71.20356115 455.48966865 -71.20356115 455.48966865 -7.24707031 418.89257812 C-6.61285156 418.32539062 -5.97863281 417.75820312 -5.32519531 417.17382812 C-1.13966358 412.95125628 0.92572756 408.43790156 3.12792969 403.01757812 C8.8833274 388.889804 19.32527817 380.9130759 32.62792969 374.18945312 C39.08309664 371.51055884 45.1614846 370.52430194 52.12792969 370.58007812 C52.87034912 370.58571777 53.61276855 370.59135742 54.37768555 370.59716797 C63.94886151 370.80802821 71.79846553 373.01555789 78.75292969 379.89257812 C86.95005888 390.154633 86.68999528 402.38201661 85.75292969 414.89257812 C82.38611242 441.223744 62.19464647 465.16473425 43.75292969 482.89257812 C40.9833776 485.64799985 38.2307244 488.41972742 35.48339844 491.19726562 C24.11030575 502.6756795 24.11030575 502.6756795 18.96777344 507.01367188 C17.14083707 508.56350679 15.35210286 510.14044788 13.56933594 511.74023438 C4.11138246 520.17369391 -5.80971934 527.71289025 -16.24707031 534.89257812 C-16.92962891 535.36405273 -17.6121875 535.83552734 -18.31542969 536.32128906 C-73.0179007 573.77307801 -134.27988569 586.66849451 -199.24707031 590.89257812 C-208.75946066 614.92698469 -217.83113027 639.08727633 -226.39746094 663.47521973 C-227.23454797 665.85694883 -228.07459862 668.23761652 -228.91503906 670.61816406 C-264.54973504 766.10355139 -264.54973504 766.10355139 -278.71582031 865.97460938 C-279.68289142 871.28638964 -283.19248597 874.07507088 -287.27050781 877.23632812 C-306.50421027 889.61045838 -329.13454981 896.97950956 -352.15332031 892.67773438 C-365.20022383 889.36658841 -374.44659015 883.28959023 -381.93457031 872.12695312 C-397.5944379 845.46789282 -375.57777332 786.20030491 -368.17382812 757.61355591 C-356.28657986 712.21369325 -341.40483757 667.59920282 -326.24707031 623.20507812 C-325.99747559 622.47308197 -325.74788086 621.74108582 -325.49072266 620.98690796 C-322.44444934 612.07023327 -319.28352207 603.19900053 -316.05566406 594.34643555 C-315.6879187 593.33656334 -315.32017334 592.32669113 -314.94128418 591.28621674 C-314.04368105 588.82149954 -313.14560055 586.35695745 -312.24707031 583.89257812 C-335.52611746 581.5623347 -358.80522168 579.23266221 -382.0843935 576.90366459 C-392.89393584 575.82219529 -403.70345961 574.74054101 -414.51293945 573.65844727 C-423.93731064 572.71501169 -433.36171689 571.77192723 -442.78616494 570.82925981 C-447.77372676 570.33037356 -452.76127116 569.8313146 -457.74877357 569.33183479 C-462.44934793 568.86109537 -467.14996925 568.39082774 -471.85062599 567.92091179 C-473.56984673 567.74896235 -475.28905069 567.576845 -477.00823593 567.40454102 C-494.23486829 565.51929586 -494.23486829 565.51929586 -511.52832031 564.65429688 C-512.26095093 564.64454834 -512.99358154 564.6347998 -513.74841309 564.62475586 C-543.86268572 564.30556276 -566.24058374 568.91094664 -590.50439453 587.78759766 C-598.11149963 593.65679363 -606.08503991 598.83569082 -614.24707031 603.89257812 C-615.30539062 604.56160156 -616.36371094 605.230625 -617.45410156 605.91992188 C-625.04316445 610.56276222 -632.90609128 613.88135963 -641.24707031 616.89257812 C-641.9625 617.16199219 -642.67792969 617.43140625 -643.41503906 617.70898438 C-651.65730439 620.31084738 -662.99350489 620.43793256 -670.87207031 616.89257812 C-678.048156 612.61104801 -682.14171577 605.85960324 -684.24707031 597.89257812 C-690.08221115 570.43069151 -680.7635548 541.20413017 -666.11083984 518.10107422 C-654.78264896 500.79975145 -640.48929182 487.83316889 -623.25878906 476.54882812 C-610.72366185 468.30891129 -598.65779568 459.3331123 -586.51318359 450.53369141 C-582.76062231 447.81609639 -579.00363612 445.1046334 -575.24707031 442.39257812 C-573.74704885 441.30927451 -572.24704886 440.22594117 -570.74707031 439.14257812 C-399.74707032 315.64257813 -399.74707032 315.64257813 -397.49731445 314.01782227 C-395.99641482 312.93379396 -394.49560109 311.8496467 -392.99487305 310.76538086 C-389.25933064 308.06670158 -385.52234777 305.37006501 -381.78222656 302.67773438 C-362.83414974 289.03106334 -344.12299563 275.1364269 -325.78613281 260.67773438 C-323.43315793 258.82302889 -321.07362749 256.97721947 -318.70800781 255.13867188 C-311.77851047 249.74405628 -305.00320492 244.20850937 -298.32519531 238.50585938 C-295.51999711 236.11375543 -292.67243874 233.77801961 -289.80957031 231.45507812 C-283.79646455 226.55744706 -277.92371454 221.50359324 -272.04980469 216.44091797 C-270.27221118 214.91417122 -268.48755017 213.39616104 -266.70019531 211.88085938 C-259.69071902 205.92906906 -252.85877329 199.8274785 -246.12988281 193.56054688 C-243.86471439 191.46419181 -241.58192464 189.40993134 -239.24707031 187.39257812 C-234.59637498 183.36718637 -230.10575543 179.17041568 -225.59472656 174.99023438 C-222.55407524 172.17281412 -219.49599303 169.37492798 -216.43457031 166.58007812 C-205.79324445 156.83353443 -195.20628708 147.04284212 -185.11474609 136.72338867 C-182.3680039 133.93226237 -179.57125095 131.27818909 -176.59472656 128.73242188 C-171.41330065 124.25276363 -166.60469176 119.39997335 -161.77416992 114.55004883 C-160.18747085 112.95798846 -158.59549289 111.37134822 -157.00292969 109.78515625 C-152.10631087 104.89140324 -147.32481014 99.95206952 -142.82348633 94.68725586 C-139.57966438 90.99431252 -136.00967829 87.61584217 -132.49707031 84.18164062 C-128.8317344 80.56539403 -125.39251015 76.82508823 -122.02832031 72.92773438 C-118.42182399 68.80715414 -114.6178088 64.86746082 -110.85253906 60.89257812 C-107.07867129 56.89212201 -103.41263524 52.82078926 -99.81005859 48.66552734 C-97.92230913 46.5241908 -95.92556709 44.50019908 -93.93457031 42.45507812 C-88.36270169 36.29669702 -84.56779906 29.22054885 -80.48779297 22.04101562 C-78.55189039 18.68880337 -76.51296887 15.40787941 -74.43457031 12.14257812 C-73.7475 11.05460937 -73.06042969 9.96664063 -72.35253906 8.84570312 C-70.21256357 5.84417906 -67.92591598 3.41712228 -65.24707031 0.89257812 C-64.40402344 0.07080078 -64.40402344 0.07080078 -63.54394531 -0.76757812 C-45.2770577 -17.32771108 -19.7420155 -9.7294418 0 0 Z M-190.24707031 273.89257812 C-191.08625 274.65828125 -191.08625 274.65828125 -191.94238281 275.43945312 C-197.45680175 280.4396658 -203.05110731 285.32935053 -208.71362305 290.16040039 C-212.4983949 293.39016063 -216.26370446 296.64079374 -220.01538086 299.90893555 C-225.69337644 304.85307494 -231.40913177 309.73025951 -237.26269531 314.46679688 C-239.55619417 316.33101519 -241.83521409 318.2085721 -244.10644531 320.09960938 C-251.95065395 326.62154505 -259.88105313 332.98337435 -268.015625 339.13989258 C-272.61664698 342.62665417 -277.13783392 346.19476404 -281.62207031 349.83007812 C-287.87068808 354.87921415 -294.29164237 359.66155511 -300.77783203 364.40014648 C-306.82510536 368.82422976 -312.79839656 373.33695169 -318.74707031 377.89257812 C-328.49312723 385.3470261 -338.33339899 392.66281106 -348.24707031 399.89257812 C-349.01148438 400.45074219 -349.77589844 401.00890625 -350.56347656 401.58398438 C-367.35264423 413.82786131 -384.41617152 425.70504848 -401.93066406 436.89257812 C-402.7119165 437.39273438 -403.49316895 437.89289063 -404.2980957 438.40820312 C-405.82178367 439.38141699 -407.34823016 440.35032842 -408.87768555 441.31445312 C-412.65750751 443.51800143 -412.65750751 443.51800143 -415.24707031 446.89257812 C-414.48876923 446.97349197 -413.73046814 447.05440582 -412.94918823 447.13777161 C-393.98822566 449.19371547 -375.11683101 451.70717349 -356.25488281 454.52929688 C-355.16680077 454.69207249 -354.07871872 454.8548481 -352.95766449 455.0225563 C-346.23496588 456.03009926 -339.51337928 457.0449175 -332.79217529 458.06237793 C-323.70635273 459.43769598 -314.61977618 460.80790741 -305.53207016 462.17072487 C-302.3987157 462.64206231 -299.26613067 463.11827861 -296.13357544 463.59489441 C-286.85109758 464.996141 -277.62796389 466.36037331 -268.24707031 466.89257812 C-264.88271116 458.59686515 -261.60705307 450.27225173 -258.42675781 441.90429688 C-257.91727097 440.56377258 -257.91727097 440.56377258 -257.39749146 439.19616699 C-256.68032172 437.30882394 -255.96316926 435.42147432 -255.24603271 433.53411865 C-240.44333058 394.62909664 -225.13435775 355.94427766 -208.24707031 317.89257812 C-207.94158264 317.20359436 -207.63609497 316.5146106 -207.3213501 315.80474854 C-204.27151414 308.92956476 -201.20502767 302.06196829 -198.11425781 295.20507812 C-197.64987305 294.17382812 -197.18548828 293.14257812 -196.70703125 292.08007812 C-195.66170798 289.79784724 -194.59993487 287.53006192 -193.51367188 285.26757812 C-192.95389648 284.09195312 -192.39412109 282.91632813 -191.81738281 281.70507812 C-191.30191895 280.63902344 -190.78645508 279.57296875 -190.25537109 278.47460938 C-189.75626221 277.19650391 -189.75626221 277.19650391 -189.24707031 275.89257812 C-189.57707031 275.23257812 -189.90707031 274.57257813 -190.24707031 273.89257812 Z " fill="#F9F9F9" transform="translate(1297.2470703125,1195.107421875)"/>
<path d="M0 0 C63.1715128 -1.1207849 126.77102534 11.78197274 177.03320312 52.06201172 C178.00644531 52.83158203 178.9796875 53.60115234 179.98242188 54.39404297 C194.38554859 66.03542729 207.86493669 79.39281896 218.78710938 94.3671875 C220.08261514 96.12921748 221.41344376 97.85981557 222.75195312 99.58935547 C275.00052005 167.81475691 275.03320312 248.55084475 275.03320312 331.06201172 C150.29320313 331.06201172 25.55320312 331.06201172 -102.96679688 331.06201172 C-97.05890833 354.69356591 -90.40885174 372.9142615 -72.96679688 390.06201172 C-72.20367188 390.82384766 -71.44054688 391.58568359 -70.65429688 392.37060547 C-43.45927839 418.01590783 -6.45665672 422.1161343 29.05255127 421.13562012 C68.80881915 419.65812916 111.36716133 404.48240368 143.21679688 380.68310547 C146.03320312 379.06201172 146.03320312 379.06201172 148.46759319 379.24912167 C151.41926033 380.18433042 152.72632792 381.261392 154.89936829 383.44715881 C155.99510414 384.53464668 155.99510414 384.53464668 157.11297607 385.644104 C157.89916321 386.44467224 158.68535034 387.24524048 159.49536133 388.07006836 C160.33489853 388.90902145 161.17443573 389.74797455 162.03941345 390.61235046 C164.33562707 392.91087165 166.62272676 395.21801812 168.90607476 397.5293076 C171.29586814 399.94412302 173.69701033 402.34759946 176.0969696 404.75230408 C180.63811241 409.30587429 185.16896341 413.86954376 189.6962015 418.43693393 C194.85154738 423.63700479 200.01826956 428.82570858 205.18597662 434.0134908 C215.814422 444.68373515 226.42850303 455.3681637 237.03320312 466.06201172 C233.30436121 472.75079112 228.79246758 478.0062236 223.50341797 483.52441406 C222.12199059 484.96915495 220.7585747 486.43105706 219.39648438 487.89404297 C173.7969568 535.53839241 97.10167681 548.5896916 34.35131836 550.12774658 C9.48839005 550.64807165 -15.33575959 550.89786915 -39.96679688 547.06201172 C-41.59004883 546.81257813 -41.59004883 546.81257813 -43.24609375 546.55810547 C-106.2311036 536.48945381 -166.63099586 504.04472589 -205.96679688 453.06201172 C-206.75183594 452.08232422 -207.536875 451.10263672 -208.34570312 450.09326172 C-247.6251238 400.75589359 -264.24629192 338.53069372 -264.15429688 276.18701172 C-264.1533905 275.04199188 -264.1533905 275.04199188 -264.15246582 273.87384033 C-264.00505819 204.82055721 -243.47862798 137.20294975 -195.68310547 86.11889648 C-193.75149905 84.05042963 -191.92995735 82.01099661 -190.27148438 79.71435547 C-189.8409375 79.16908203 -189.41039063 78.62380859 -188.96679688 78.06201172 C-188.30679688 78.06201172 -187.64679687 78.06201172 -186.96679688 78.06201172 C-186.96679688 77.40201172 -186.96679688 76.74201172 -186.96679688 76.06201172 C-185.63867188 74.72216797 -185.63867188 74.72216797 -183.71679688 73.12451172 C-180.16954219 70.12394427 -176.77964495 67.00466166 -173.40429688 63.81201172 C-131.28607973 24.72150503 -74.97306042 6.96226697 -18.96679688 1.06201172 C-17.74259033 0.93270264 -17.74259033 0.93270264 -16.49365234 0.80078125 C-10.99662663 0.25797762 -5.51700294 0.11531589 0 0 Z M-78.77929688 164.93701172 C-92.39776391 181.56303103 -96.46473771 199.03318345 -97.96679688 220.06201172 C-26.02679687 220.06201172 45.91320313 220.06201172 120.03320312 220.06201172 C118.19034196 201.63340008 116.29967533 185.73664604 105.03320312 171.06201172 C104.64535645 170.54832031 104.25750977 170.03462891 103.85791016 169.50537109 C86.11618898 146.29035992 58.9368205 133.37998668 30.38476562 129.37841797 C-9.54650704 124.27859064 -50.76716719 134.75537769 -78.77929688 164.93701172 Z " fill="#F9F9F9" transform="translate(2844.966796875,1474.93798828125)"/>
<path d="M0 0 C0.33 18.81 0.66 37.62 1 57 C5.29 53.04 9.58 49.08 14 45 C16.50596196 42.92012379 18.95160951 40.92335356 21.5625 39 C22.21686035 38.51563477 22.8712207 38.03126953 23.54541016 37.53222656 C71.54559873 2.72284395 129.13838357 -5.42235925 186.9375 3.0625 C191.66467066 3.83233533 191.66467066 3.83233533 194 5 C193.37135854 13.36004496 192.216103 21.57915745 190.8828125 29.85327148 C190.66723182 31.20794331 190.45197008 32.56266592 190.23699951 33.91743469 C189.65771434 37.56210408 189.07389162 41.20603281 188.4890976 44.84982181 C187.87586609 48.67521239 187.26656551 52.50122923 186.65673828 56.3271637 C185.6336867 62.74186701 184.60781309 69.15611382 183.58007812 75.57006836 C182.3924514 82.98201671 181.2086426 90.39456677 180.02700233 97.80747169 C178.76627538 105.71630294 177.5028587 113.62470276 176.23860931 121.53297162 C175.87519983 123.80734312 175.51228439 126.08179299 175.1494751 128.3562603 C174.57987085 131.92624172 174.00845906 135.49592933 173.43564606 139.06539726 C173.1257553 140.99902954 172.81758339 142.93293704 172.50946045 144.86685181 C172.32441956 146.01760696 172.13937866 147.16836212 171.94873047 148.35398865 C171.78871552 149.35367393 171.62870056 150.3533592 171.46383667 151.38333797 C171.06647577 153.62498736 170.58811285 155.80193917 170 158 C166.08095849 156.62833547 163.25414598 154.8096636 160 152.25 C140.70490416 138.00408812 109.90233744 130.33514863 85.953125 133.4375 C77.82041756 134.89806787 70.42400317 137.40048331 63 141 C62.06414062 141.45375 61.12828125 141.9075 60.1640625 142.375 C53.43597526 145.84269762 47.74583944 150.09970215 42 155 C41.31164063 155.55429688 40.62328125 156.10859375 39.9140625 156.6796875 C34.12250339 161.46401894 29.56016955 167.05426975 25 173 C24.21753906 174.01707031 23.43507813 175.03414062 22.62890625 176.08203125 C15.11139312 186.11496175 8.96452855 196.98952012 3 208 C2.65126819 208.58551911 2.30253639 209.17103822 1.94323695 209.77430034 C0.75900151 212.56866968 0.7450304 214.73631789 0.73828697 217.77086258 C0.73082148 218.95621448 0.72335599 220.14156638 0.71566427 221.36283803 C0.717599 222.66632719 0.71953374 223.96981635 0.7215271 225.31280518 C0.71652527 226.71044322 0.71064981 228.10807836 0.70397437 229.50570941 C0.68814658 233.35041874 0.68474216 237.19505504 0.68332577 241.03979301 C0.67963656 245.18429529 0.6644835 249.32875727 0.65071106 253.47323608 C0.62841932 260.6552005 0.61341755 267.83715061 0.60334396 275.01914215 C0.58876868 285.40313686 0.56323511 295.78708177 0.53501268 306.1710473 C0.48952374 323.0176642 0.45291763 339.86428825 0.421875 356.7109375 C0.39169806 373.07748677 0.35732894 389.44401842 0.31738281 405.81054688 C0.3149013 406.82939091 0.3124198 407.84823494 0.30986309 408.89795303 C0.29042377 416.86578734 0.27074101 424.83362103 0.25098133 432.80145454 C0.15416228 471.86761498 0.07857908 510.93379039 0 550 C-51.15 550 -102.3 550 -155 550 C-155 373.78 -155 197.56 -155 16 C-11 0 -11 0 0 0 Z " fill="#F9F9F9" transform="translate(1576,1475)"/>
<path d="M0 0 C51.15 0 102.3 0 155 0 C155 181.5 155 363 155 550 C103.85 550 52.7 550 0 550 C0 368.5 0 187 0 0 Z " fill="#F9F9F9" transform="translate(2390,1475)"/>
<path d="M0 0 C1.09482326 -0.00724325 1.09482326 -0.00724325 2.21176416 -0.01463282 C4.64637218 -0.02586387 7.07992048 -0.00861617 9.51448059 0.00863647 C11.26417321 0.00648966 13.01386444 0.00261055 14.7635498 -0.00286865 C19.50718722 -0.01255097 24.25044748 0.00272584 28.9940393 0.02303743 C33.95741703 0.04061651 38.92078327 0.03708324 43.88418579 0.03631592 C52.21576748 0.03818799 60.54720332 0.0555421 68.8787384 0.08285522 C78.51729694 0.11433595 88.15569594 0.1248503 97.79430217 0.12338412 C107.06345537 0.12216447 116.33255653 0.132365 125.60169411 0.14896774 C129.54860655 0.15603649 133.49550058 0.15969467 137.44241905 0.16075516 C142.08569639 0.16276076 146.72883924 0.17494349 151.37207222 0.19508743 C153.078507 0.20093988 154.78495725 0.20338767 156.49140167 0.20223236 C158.81545672 0.20125413 161.13913246 0.21253026 163.46313477 0.22705078 C165.41624714 0.23207831 165.41624714 0.23207831 167.40881634 0.23720741 C170.54109192 0.49447632 170.54109192 0.49447632 173.54109192 2.49447632 C173.54109192 3.15447632 173.54109192 3.81447632 173.54109192 4.49447632 C174.53109192 4.49447632 175.52109192 4.49447632 176.54109192 4.49447632 C179.4972376 8.23192143 179.91983143 11.17319367 179.9355011 15.8571167 C179.94685089 17.14123947 179.95820068 18.42536224 179.96989441 19.74839783 C179.96725128 21.16424623 179.96428009 22.58009406 179.96101379 23.99594116 C179.96835629 25.49269748 179.97694304 26.98944813 179.98667908 28.4861908 C180.008886 32.5462028 180.01182615 36.60601179 180.00993156 40.66607618 C180.00981181 44.05815862 180.01837785 47.45019811 180.02670908 50.84226859 C180.04594052 58.84680971 180.04882806 66.85124655 180.04206848 74.85580444 C180.03542893 83.10668958 180.05828897 91.35712752 180.09538221 99.60792196 C180.12609641 106.69769628 180.13743735 113.78732688 180.1335454 120.87716639 C180.13147951 125.10898663 180.13693189 129.34045893 180.16143799 133.57221603 C180.18373105 137.55330768 180.18180671 141.53367338 180.16151047 145.5147686 C180.15810478 146.97281523 180.16317066 148.43091097 180.17749405 149.88889122 C180.29054686 162.25325747 180.29054686 162.25325747 177.19013977 166.91699219 C174.54109192 169.49447632 174.54109192 169.49447632 171.54109192 169.49447632 C171.54109192 170.15447632 171.54109192 170.81447632 171.54109192 171.49447632 C112.14109192 171.49447632 52.74109192 171.49447632 -8.45890808 171.49447632 C-8.45890808 170.83447632 -8.45890808 170.17447632 -8.45890808 169.49447632 C-9.44890808 169.49447632 -10.43890808 169.49447632 -11.45890808 169.49447632 C-11.45890808 168.83447632 -11.45890808 168.17447632 -11.45890808 167.49447632 C-12.11890808 167.49447632 -12.77890808 167.49447632 -13.45890808 167.49447632 C-17.32283139 160.67990471 -16.86909945 153.84422016 -16.81535339 146.19320679 C-16.81614509 144.74217607 -16.81824487 143.29114558 -16.82154846 141.84011841 C-16.82666527 137.9146005 -16.81318232 133.98934648 -16.79602146 130.06387091 C-16.78094334 125.95026149 -16.78215852 121.83665489 -16.78135681 117.72302246 C-16.77766918 110.81818154 -16.76272603 103.91344031 -16.74015808 97.00863647 C-16.71126293 88.15003141 -16.70093153 79.29150649 -16.69647598 70.43285942 C-16.69249371 62.80867488 -16.67999454 55.1845077 -16.66612911 47.56033564 C-16.66203523 45.11294628 -16.65910706 42.66555753 -16.65633392 40.21816635 C-16.65143233 36.37187842 -16.64121444 32.52563874 -16.6268959 28.67937469 C-16.62238278 27.2688732 -16.61953658 25.85836523 -16.61848831 24.4478569 C-16.61673524 22.52099396 -16.60820834 20.59414074 -16.59934998 18.66729736 C-16.59637531 17.58959517 -16.59340065 16.51189297 -16.59033585 15.40153313 C-16.46634302 12.65893 -16.07921865 10.16426465 -15.45890808 7.49447632 C-14.79890808 7.49447632 -14.13890808 7.49447632 -13.45890808 7.49447632 C-13.45890808 6.50447632 -13.45890808 5.51447632 -13.45890808 4.49447632 C-9.00658101 0.70499088 -5.76208697 -0.00481735 0 0 Z " fill="#4D08C5" transform="translate(2385.4589080810547,1264.5055236816406)"/>
</svg>
